<?xml version="1.0" standalone="no"?>
<!DOCTYPE svg PUBLIC "-//W3C//DTD SVG 1.1//EN" "http://www.w3.org/Graphics/SVG/1.1/DTD/svg11.dtd">
<svg xmlns="http://www.w3.org/2000/svg" version="1.1" width="1048" height="1232" viewbox="244 123 804 1109">
<line  x1="866" y1="1096" x2="980" y2="1092" stroke="#000000" stroke-width="1" fill="none"/>
<line  x1="980" y1="1092" x2="971" y2="1097" stroke="#000000" stroke-width="1" fill="none"/>
<line  x1="980" y1="1092" x2="971" y2="1087" stroke="#000000" stroke-width="1" fill="none"/>
<text  x="889" y="1094" style="font-size:12; font-family:SansSerif.plain; fill=#000000">&lt;&lt;include&gt;&gt;</text>
<line  x1="653" y1="1047" x2="727" y2="1096" stroke="#000000" stroke-width="1" fill="none"/>
<line  x1="727" y1="1096" x2="717" y2="1095" stroke="#000000" stroke-width="1" fill="none"/>
<line  x1="727" y1="1096" x2="722" y2="1087" stroke="#000000" stroke-width="1" fill="none"/>
<text  x="656" y="1071" style="font-size:12; font-family:SansSerif.plain; fill=#000000">&lt;&lt;include&gt;&gt;</text>
<line  x1="721" y1="960" x2="615" y2="1027" stroke="#000000" stroke-width="1" fill="none"/>
<line  x1="615" y1="1027" x2="619" y2="1018" stroke="#000000" stroke-width="1" fill="none"/>
<line  x1="615" y1="1027" x2="624" y2="1026" stroke="#000000" stroke-width="1" fill="none"/>
<text  x="634" y="993" style="font-size:12; font-family:SansSerif.plain; fill=#000000">&lt;&lt;include&gt;&gt;</text>
<line  x1="796" y1="1116" x2="799" y2="1173" stroke="#000000" stroke-width="1" fill="none"/>
<line  x1="799" y1="1173" x2="793" y2="1164" stroke="#000000" stroke-width="1" fill="none"/>
<line  x1="799" y1="1173" x2="803" y2="1164" stroke="#000000" stroke-width="1" fill="none"/>
<text  x="763" y="1144" style="font-size:12; font-family:SansSerif.plain; fill=#000000">&lt;&lt;include&gt;&gt;</text>
<line  x1="691" y1="189" x2="582" y2="273" stroke="#000000" stroke-width="1" fill="none"/>
<line  x1="582" y1="273" x2="585" y2="263" stroke="#000000" stroke-width="1" fill="none"/>
<line  x1="582" y1="273" x2="591" y2="271" stroke="#000000" stroke-width="1" fill="none"/>
<text  x="602" y="231" style="font-size:12; font-family:SansSerif.plain; fill=#000000">&lt;&lt;include&gt;&gt;</text>
<line  x1="582" y1="313" x2="660" y2="361" stroke="#000000" stroke-width="1" fill="none"/>
<line  x1="660" y1="361" x2="650" y2="360" stroke="#000000" stroke-width="1" fill="none"/>
<line  x1="660" y1="361" x2="655" y2="352" stroke="#000000" stroke-width="1" fill="none"/>
<text  x="587" y="337" style="font-size:12; font-family:SansSerif.plain; fill=#000000">&lt;&lt;include&gt;&gt;</text>
<line  x1="789" y1="189" x2="895" y2="249" stroke="#000000" stroke-width="1" fill="none"/>
<line  x1="895" y1="249" x2="885" y2="249" stroke="#000000" stroke-width="1" fill="none"/>
<line  x1="895" y1="249" x2="889" y2="240" stroke="#000000" stroke-width="1" fill="none"/>
<text  x="808" y="219" style="font-size:12; font-family:SansSerif.plain; fill=#000000">&lt;&lt;include&gt;&gt;</text>
<line  x1="281" y1="278" x2="507" y2="293" stroke="#000000" stroke-width="1" fill="none"/>
<line  x1="658" y1="293" x2="780" y2="324" stroke="#000000" stroke-width="1" fill="none"/>
<line  x1="780" y1="324" x2="770" y2="326" stroke="#000000" stroke-width="1" fill="none"/>
<line  x1="780" y1="324" x2="772" y2="317" stroke="#000000" stroke-width="1" fill="none"/>
<text  x="687" y="308" style="font-size:12; font-family:SansSerif.plain; fill=#000000">&lt;&lt;extend&gt;&gt;</text>
<line  x1="809" y1="671" x2="923" y2="667" stroke="#000000" stroke-width="1" fill="none"/>
<line  x1="923" y1="667" x2="914" y2="672" stroke="#000000" stroke-width="1" fill="none"/>
<line  x1="923" y1="667" x2="914" y2="662" stroke="#000000" stroke-width="1" fill="none"/>
<text  x="832" y="669" style="font-size:12; font-family:SansSerif.plain; fill=#000000">&lt;&lt;include&gt;&gt;</text>
<line  x1="596" y1="622" x2="670" y2="671" stroke="#000000" stroke-width="1" fill="none"/>
<line  x1="670" y1="671" x2="660" y2="670" stroke="#000000" stroke-width="1" fill="none"/>
<line  x1="670" y1="671" x2="665" y2="662" stroke="#000000" stroke-width="1" fill="none"/>
<text  x="599" y="646" style="font-size:12; font-family:SansSerif.plain; fill=#000000">&lt;&lt;include&gt;&gt;</text>
<line  x1="664" y1="535" x2="558" y2="602" stroke="#000000" stroke-width="1" fill="none"/>
<line  x1="558" y1="602" x2="562" y2="593" stroke="#000000" stroke-width="1" fill="none"/>
<line  x1="558" y1="602" x2="567" y2="601" stroke="#000000" stroke-width="1" fill="none"/>
<text  x="577" y="568" style="font-size:12; font-family:SansSerif.plain; fill=#000000">&lt;&lt;include&gt;&gt;</text>
<line  x1="739" y1="691" x2="742" y2="748" stroke="#000000" stroke-width="1" fill="none"/>
<line  x1="742" y1="748" x2="736" y2="739" stroke="#000000" stroke-width="1" fill="none"/>
<line  x1="742" y1="748" x2="746" y2="739" stroke="#000000" stroke-width="1" fill="none"/>
<text  x="706" y="719" style="font-size:12; font-family:SansSerif.plain; fill=#000000">&lt;&lt;include&gt;&gt;</text>
<line  x1="289" y1="601" x2="520" y2="622" stroke="#000000" stroke-width="1" fill="none"/>
<line  x1="289" y1="636" x2="577" y2="1047" stroke="#000000" stroke-width="1" fill="none"/>
<rect  x="503" y="479" width="485" height="326" fill="none" stroke="#000000" stroke-width="1"/>
<text  x="901" y="495" style="font-size:12; font-family:SansSerif.plain; fill=#000000">ECU_Entrance</text>
<rect  x="558" y="901" width="485" height="326" fill="none" stroke="#000000" stroke-width="1"/>
<text  x="986" y="917" style="font-size:12; font-family:SansSerif.plain; fill=#000000">ECU_Exit</text>
<ellipse  cx="615" cy="1047" rx="38" ry="20" fill="none" stroke="#000000" stroke-width="1"/>
<text  x="582" y="1052" style="font-size:12; font-family:SansSerif.plain; fill=#000000">GateControl</text>
<ellipse  cx="1003" cy="1092" rx="23" ry="20" fill="none" stroke="#000000" stroke-width="1"/>
<text  x="985" y="1097" style="font-size:12; font-family:SansSerif.plain; fill=#000000">Buzzer</text>
<ellipse  cx="721" cy="940" rx="49" ry="20" fill="none" stroke="#000000" stroke-width="1"/>
<text  x="677" y="945" style="font-size:12; font-family:SansSerif.plain; fill=#000000">SystemRunning</text>
<ellipse  cx="796" cy="1096" rx="69" ry="20" fill="none" stroke="#000000" stroke-width="1"/>
<text  x="732" y="1101" style="font-size:12; font-family:SansSerif.plain; fill=#000000">AuthenticateInformation</text>
<ellipse  cx="799" cy="1193" rx="33" ry="20" fill="none" stroke="#000000" stroke-width="1"/>
<text  x="771" y="1198" style="font-size:12; font-family:SansSerif.plain; fill=#000000">OpenGate</text>
<ellipse  cx="558" cy="622" rx="38" ry="20" fill="none" stroke="#000000" stroke-width="1"/>
<text  x="525" y="627" style="font-size:12; font-family:SansSerif.plain; fill=#000000">GateControl</text>
<ellipse  cx="803" cy="324" rx="23" ry="20" fill="none" stroke="#000000" stroke-width="1"/>
<text  x="785" y="329" style="font-size:12; font-family:SansSerif.plain; fill=#000000">Buzzer</text>
<ellipse  cx="946" cy="667" rx="23" ry="20" fill="none" stroke="#000000" stroke-width="1"/>
<text  x="928" y="672" style="font-size:12; font-family:SansSerif.plain; fill=#000000">Buzzer</text>
<ellipse  cx="265" cy="250" rx="7" ry="7" fill="none" stroke="#000000" stroke-width="1"/>
<line  x1="266" y1="258" x2="266" y2="282" stroke="#000000" stroke-width="1" fill="none"/>
<line  x1="251" y1="266" x2="281" y2="266" stroke="#000000" stroke-width="1" fill="none"/>
<line  x1="266" y1="282" x2="251" y2="297" stroke="#000000" stroke-width="1" fill="none"/>
<line  x1="266" y1="282" x2="281" y2="297" stroke="#000000" stroke-width="1" fill="none"/>
<text  x="249" y="313" style="font-size:12; font-family:SansSerif.plain; fill=#000000">Admin</text>
<ellipse  cx="273" cy="591" rx="7" ry="7" fill="none" stroke="#000000" stroke-width="1"/>
<line  x1="274" y1="599" x2="274" y2="623" stroke="#000000" stroke-width="1" fill="none"/>
<line  x1="259" y1="607" x2="289" y2="607" stroke="#000000" stroke-width="1" fill="none"/>
<line  x1="274" y1="623" x2="259" y2="638" stroke="#000000" stroke-width="1" fill="none"/>
<line  x1="274" y1="623" x2="289" y2="638" stroke="#000000" stroke-width="1" fill="none"/>
<text  x="258" y="654" style="font-size:12; font-family:SansSerif.plain; fill=#000000">Driver</text>
<rect  x="473" y="128" width="512" height="292" fill="none" stroke="#000000" stroke-width="1"/>
<text  x="852" y="144" style="font-size:12; font-family:SansSerif.plain; fill=#000000">ECU2_MainDashboard</text>
<ellipse  cx="582" cy="293" rx="75" ry="20" fill="none" stroke="#000000" stroke-width="1"/>
<text  x="512" y="298" style="font-size:12; font-family:SansSerif.plain; fill=#000000">ValidateAdminInformation</text>
<ellipse  cx="660" cy="381" rx="70" ry="20" fill="none" stroke="#000000" stroke-width="1"/>
<text  x="595" y="386" style="font-size:12; font-family:SansSerif.plain; fill=#000000">AdminPermissionPanel</text>
<ellipse  cx="740" cy="189" rx="49" ry="20" fill="none" stroke="#000000" stroke-width="1"/>
<text  x="696" y="194" style="font-size:12; font-family:SansSerif.plain; fill=#000000">SystemRunning</text>
<ellipse  cx="895" cy="269" rx="47" ry="20" fill="none" stroke="#000000" stroke-width="1"/>
<text  x="853" y="274" style="font-size:12; font-family:SansSerif.plain; fill=#000000">DisplayOptions</text>
<ellipse  cx="664" cy="515" rx="49" ry="20" fill="none" stroke="#000000" stroke-width="1"/>
<text  x="620" y="520" style="font-size:12; font-family:SansSerif.plain; fill=#000000">SystemRunning</text>
<ellipse  cx="739" cy="671" rx="69" ry="20" fill="none" stroke="#000000" stroke-width="1"/>
<text  x="675" y="676" style="font-size:12; font-family:SansSerif.plain; fill=#000000">AuthenticateInformation</text>
<ellipse  cx="742" cy="768" rx="33" ry="20" fill="none" stroke="#000000" stroke-width="1"/>
<text  x="714" y="773" style="font-size:12; font-family:SansSerif.plain; fill=#000000">OpenGate</text>
</svg>