<?xml version="1.0" standalone="no"?>
<!DOCTYPE svg PUBLIC "-//W3C//DTD SVG 1.1//EN" "http://www.w3.org/Graphics/SVG/1.1/DTD/svg11.dtd">
<svg xmlns="http://www.w3.org/2000/svg" version="1.1" width="1271" height="693" viewbox="369 65 902 628">
<ellipse  cx="638" cy="77" rx="7" ry="7" fill="#000000"/>
<line  x1="638" y1="85" x2="638" y2="90" stroke="#000000" stroke-width="1" fill="none"/>
<line  x1="640" y1="120" x2="640" y2="130" stroke="#000000" stroke-width="1" fill="none"/>
<line  x1="640" y1="140" x2="640" y2="150" stroke="#000000" stroke-width="1" fill="none"/>
<line  x1="625" y1="135" x2="635" y2="135" stroke="#000000" stroke-width="1" fill="none"/>
<line  x1="645" y1="135" x2="655" y2="135" stroke="#000000" stroke-width="1" fill="none"/>
<line  x1="640" y1="130" x2="635" y2="135" stroke="#000000" stroke-width="1" fill="none"/>
<line  x1="640" y1="130" x2="645" y2="135" stroke="#000000" stroke-width="1" fill="none"/>
<line  x1="635" y1="135" x2="640" y2="140" stroke="#000000" stroke-width="1" fill="none"/>
<line  x1="645" y1="135" x2="640" y2="140" stroke="#000000" stroke-width="1" fill="none"/>
<line  x1="640" y1="178" x2="640" y2="173" stroke="#000000" stroke-width="1" fill="none"/>
<line  x1="640" y1="198" x2="640" y2="203" stroke="#000000" stroke-width="1" fill="none"/>
<line  x1="499" y1="179" x2="784" y2="179" stroke="#d8bbf9" stroke-width="1" fill="none"/>
<line  x1="784" y1="179" x2="784" y2="199" stroke="#d8bbf9" stroke-width="1" fill="none"/>
<line  x1="499" y1="199" x2="784" y2="199" stroke="#d8bbf9" stroke-width="1" fill="none"/>
<line  x1="499" y1="179" x2="509" y2="189" stroke="#d8bbf9" stroke-width="1" fill="none"/>
<line  x1="499" y1="199" x2="509" y2="189" stroke="#d8bbf9" stroke-width="1" fill="none"/>
<line  x1="498" y1="178" x2="783" y2="178" stroke="#000000" stroke-width="1" fill="none"/>
<line  x1="783" y1="178" x2="783" y2="198" stroke="#000000" stroke-width="1" fill="none"/>
<line  x1="498" y1="198" x2="783" y2="198" stroke="#000000" stroke-width="1" fill="none"/>
<line  x1="498" y1="178" x2="508" y2="188" stroke="#000000" stroke-width="1" fill="none"/>
<line  x1="498" y1="198" x2="508" y2="188" stroke="#000000" stroke-width="1" fill="none"/>
<text  x="504" y="178" style="font-size:12; font-family:SansSerif.plain; fill=#000000">evt</text>
<text  x="510" y="193" style="font-size:12; font-family:SansSerif.plain; fill=#000000">AuthenticateDriverInformation(string name , u8 ID)</text>
<line  x1="1017" y1="435" x2="1017" y2="430" stroke="#000000" stroke-width="1" fill="none"/>
<line  x1="1017" y1="455" x2="1017" y2="460" stroke="#000000" stroke-width="1" fill="none"/>
<line  x1="925" y1="436" x2="1101" y2="436" stroke="#d8bbf9" stroke-width="1" fill="none"/>
<line  x1="925" y1="456" x2="1101" y2="456" stroke="#d8bbf9" stroke-width="1" fill="none"/>
<line  x1="925" y1="436" x2="925" y2="456" stroke="#d8bbf9" stroke-width="1" fill="none"/>
<line  x1="1101" y1="436" x2="1111" y2="446" stroke="#d8bbf9" stroke-width="1" fill="none"/>
<line  x1="1101" y1="456" x2="1111" y2="446" stroke="#d8bbf9" stroke-width="1" fill="none"/>
<line  x1="924" y1="435" x2="1100" y2="435" stroke="#000000" stroke-width="1" fill="none"/>
<line  x1="924" y1="455" x2="1100" y2="455" stroke="#000000" stroke-width="1" fill="none"/>
<line  x1="924" y1="435" x2="924" y2="455" stroke="#000000" stroke-width="1" fill="none"/>
<line  x1="1100" y1="435" x2="1110" y2="445" stroke="#000000" stroke-width="1" fill="none"/>
<line  x1="1100" y1="455" x2="1110" y2="445" stroke="#000000" stroke-width="1" fill="none"/>
<text  x="929" y="435" style="font-size:12; font-family:SansSerif.plain; fill=#000000">sig</text>
<text  x="929" y="450" style="font-size:12; font-family:SansSerif.plain; fill=#000000">LCD_Display(&quot;Not Valid Admin&quot;)</text>
<line  x1="1018" y1="488" x2="1018" y2="483" stroke="#000000" stroke-width="1" fill="none"/>
<line  x1="1018" y1="508" x2="1018" y2="513" stroke="#000000" stroke-width="1" fill="none"/>
<line  x1="988" y1="489" x2="1040" y2="489" stroke="#d8bbf9" stroke-width="1" fill="none"/>
<line  x1="988" y1="509" x2="1040" y2="509" stroke="#d8bbf9" stroke-width="1" fill="none"/>
<line  x1="988" y1="489" x2="988" y2="509" stroke="#d8bbf9" stroke-width="1" fill="none"/>
<line  x1="1040" y1="489" x2="1050" y2="499" stroke="#d8bbf9" stroke-width="1" fill="none"/>
<line  x1="1040" y1="509" x2="1050" y2="499" stroke="#d8bbf9" stroke-width="1" fill="none"/>
<line  x1="987" y1="488" x2="1039" y2="488" stroke="#000000" stroke-width="1" fill="none"/>
<line  x1="987" y1="508" x2="1039" y2="508" stroke="#000000" stroke-width="1" fill="none"/>
<line  x1="987" y1="488" x2="987" y2="508" stroke="#000000" stroke-width="1" fill="none"/>
<line  x1="1039" y1="488" x2="1049" y2="498" stroke="#000000" stroke-width="1" fill="none"/>
<line  x1="1039" y1="508" x2="1049" y2="498" stroke="#000000" stroke-width="1" fill="none"/>
<text  x="992" y="488" style="font-size:12; font-family:SansSerif.plain; fill=#000000">sig</text>
<text  x="992" y="503" style="font-size:12; font-family:SansSerif.plain; fill=#000000">BuzzerOn</text>
<rect  x="969" y="542" width="100" height="50" fill="none" stroke="#000000" stroke-width="1"/>
<line  x1="969" y1="557" x2="984" y2="557" stroke="#000000" stroke-width="1" fill="none"/>
<line  x1="984" y1="557" x2="989" y2="552" stroke="#000000" stroke-width="1" fill="none"/>
<line  x1="989" y1="552" x2="989" y2="542" stroke="#000000" stroke-width="1" fill="none"/>
<text  x="970" y="555" style="font-size:12; font-family:SansSerif.plain; fill=#000000">act</text>
<text  x="1003" y="559" style="font-size:12; font-family:SansSerif.plain; fill=#000000">Delay</text>
<line  x1="1020" y1="643" x2="1020" y2="638" stroke="#000000" stroke-width="1" fill="none"/>
<line  x1="1020" y1="663" x2="1020" y2="668" stroke="#000000" stroke-width="1" fill="none"/>
<line  x1="991" y1="644" x2="1042" y2="644" stroke="#d8bbf9" stroke-width="1" fill="none"/>
<line  x1="991" y1="664" x2="1042" y2="664" stroke="#d8bbf9" stroke-width="1" fill="none"/>
<line  x1="991" y1="644" x2="991" y2="664" stroke="#d8bbf9" stroke-width="1" fill="none"/>
<line  x1="1042" y1="644" x2="1052" y2="654" stroke="#d8bbf9" stroke-width="1" fill="none"/>
<line  x1="1042" y1="664" x2="1052" y2="654" stroke="#d8bbf9" stroke-width="1" fill="none"/>
<line  x1="990" y1="643" x2="1041" y2="643" stroke="#000000" stroke-width="1" fill="none"/>
<line  x1="990" y1="663" x2="1041" y2="663" stroke="#000000" stroke-width="1" fill="none"/>
<line  x1="990" y1="643" x2="990" y2="663" stroke="#000000" stroke-width="1" fill="none"/>
<line  x1="1041" y1="643" x2="1051" y2="653" stroke="#000000" stroke-width="1" fill="none"/>
<line  x1="1041" y1="663" x2="1051" y2="653" stroke="#000000" stroke-width="1" fill="none"/>
<text  x="995" y="643" style="font-size:12; font-family:SansSerif.plain; fill=#000000">sig</text>
<text  x="995" y="658" style="font-size:12; font-family:SansSerif.plain; fill=#000000">BuzzerOff</text>
<line  x1="638" y1="494" x2="638" y2="489" stroke="#000000" stroke-width="1" fill="none"/>
<line  x1="638" y1="514" x2="638" y2="519" stroke="#000000" stroke-width="1" fill="none"/>
<line  x1="602" y1="495" x2="666" y2="495" stroke="#d8bbf9" stroke-width="1" fill="none"/>
<line  x1="602" y1="515" x2="666" y2="515" stroke="#d8bbf9" stroke-width="1" fill="none"/>
<line  x1="602" y1="495" x2="602" y2="515" stroke="#d8bbf9" stroke-width="1" fill="none"/>
<line  x1="666" y1="495" x2="676" y2="505" stroke="#d8bbf9" stroke-width="1" fill="none"/>
<line  x1="666" y1="515" x2="676" y2="505" stroke="#d8bbf9" stroke-width="1" fill="none"/>
<line  x1="601" y1="494" x2="665" y2="494" stroke="#000000" stroke-width="1" fill="none"/>
<line  x1="601" y1="514" x2="665" y2="514" stroke="#000000" stroke-width="1" fill="none"/>
<line  x1="601" y1="494" x2="601" y2="514" stroke="#000000" stroke-width="1" fill="none"/>
<line  x1="665" y1="494" x2="675" y2="504" stroke="#000000" stroke-width="1" fill="none"/>
<line  x1="665" y1="514" x2="675" y2="504" stroke="#000000" stroke-width="1" fill="none"/>
<text  x="606" y="494" style="font-size:12; font-family:SansSerif.plain; fill=#000000">sig</text>
<text  x="606" y="509" style="font-size:12; font-family:SansSerif.plain; fill=#000000">OpenGate()</text>
<line  x1="639" y1="287" x2="654" y2="302" stroke="#000000" stroke-width="1" fill="none"/>
<line  x1="624" y1="302" x2="639" y2="317" stroke="#000000" stroke-width="1" fill="none"/>
<line  x1="639" y1="287" x2="624" y2="302" stroke="#000000" stroke-width="1" fill="none"/>
<line  x1="654" y1="302" x2="639" y2="317" stroke="#000000" stroke-width="1" fill="none"/>
<line  x1="639" y1="287" x2="639" y2="277" stroke="#000000" stroke-width="1" fill="none"/>
<line  x1="624" y1="302" x2="599" y2="302" stroke="#000000" stroke-width="1" fill="none"/>
<line  x1="654" y1="302" x2="679" y2="302" stroke="#000000" stroke-width="1" fill="none"/>
<line  x1="639" y1="317" x2="639" y2="342" stroke="#000000" stroke-width="1" fill="none"/>
<text  x="599" y="297" style="font-size:12; font-family:SansSerif.plain; fill=#000000">[ ]</text>
<text  x="659" y="297" style="font-size:12; font-family:SansSerif.plain; fill=#000000">[NOT_VALID_DRIVER]</text>
<text  x="644" y="332" style="font-size:12; font-family:SansSerif.plain; fill=#000000">[VALID_DRIVER]</text>
<line  x1="638" y1="90" x2="640" y2="120" stroke="#000000" stroke-width="1" fill="none"/>
<line  x1="640" y1="120" x2="634" y2="111" stroke="#000000" stroke-width="1" fill="none"/>
<line  x1="640" y1="120" x2="644" y2="111" stroke="#000000" stroke-width="1" fill="none"/>
<line  x1="640" y1="150" x2="640" y2="173" stroke="#000000" stroke-width="1" fill="none"/>
<line  x1="640" y1="173" x2="635" y2="164" stroke="#000000" stroke-width="1" fill="none"/>
<line  x1="640" y1="173" x2="644" y2="164" stroke="#000000" stroke-width="1" fill="none"/>
<line  x1="640" y1="203" x2="639" y2="277" stroke="#000000" stroke-width="1" fill="none"/>
<line  x1="639" y1="277" x2="634" y2="268" stroke="#000000" stroke-width="1" fill="none"/>
<line  x1="639" y1="277" x2="644" y2="268" stroke="#000000" stroke-width="1" fill="none"/>
<line  x1="1017" y1="460" x2="1018" y2="483" stroke="#000000" stroke-width="1" fill="none"/>
<line  x1="1018" y1="483" x2="1012" y2="474" stroke="#000000" stroke-width="1" fill="none"/>
<line  x1="1018" y1="483" x2="1022" y2="474" stroke="#000000" stroke-width="1" fill="none"/>
<line  x1="1018" y1="513" x2="1019" y2="542" stroke="#000000" stroke-width="1" fill="none"/>
<line  x1="1019" y1="542" x2="1013" y2="533" stroke="#000000" stroke-width="1" fill="none"/>
<line  x1="1019" y1="542" x2="1023" y2="533" stroke="#000000" stroke-width="1" fill="none"/>
<line  x1="1019" y1="592" x2="1020" y2="638" stroke="#000000" stroke-width="1" fill="none"/>
<line  x1="1020" y1="638" x2="1014" y2="629" stroke="#000000" stroke-width="1" fill="none"/>
<line  x1="1020" y1="638" x2="1024" y2="629" stroke="#000000" stroke-width="1" fill="none"/>
<line  x1="639" y1="342" x2="638" y2="489" stroke="#000000" stroke-width="1" fill="none"/>
<line  x1="638" y1="489" x2="633" y2="480" stroke="#000000" stroke-width="1" fill="none"/>
<line  x1="638" y1="489" x2="643" y2="480" stroke="#000000" stroke-width="1" fill="none"/>
<line  x1="1020" y1="668" x2="1020" y2="688" stroke="#000000" stroke-width="1" fill="none"/>
<line  x1="1020" y1="688" x2="1266" y2="688" stroke="#000000" stroke-width="1" fill="none"/>
<line  x1="1266" y1="688" x2="1266" y2="115" stroke="#000000" stroke-width="1" fill="none"/>
<line  x1="1266" y1="115" x2="675" y2="115" stroke="#000000" stroke-width="1" fill="none"/>
<line  x1="675" y1="115" x2="655" y2="135" stroke="#000000" stroke-width="1" fill="none"/>
<line  x1="655" y1="135" x2="657" y2="125" stroke="#000000" stroke-width="1" fill="none"/>
<line  x1="655" y1="135" x2="664" y2="132" stroke="#000000" stroke-width="1" fill="none"/>
<line  x1="679" y1="302" x2="1017" y2="302" stroke="#000000" stroke-width="1" fill="none"/>
<line  x1="1017" y1="302" x2="1017" y2="430" stroke="#000000" stroke-width="1" fill="none"/>
<line  x1="1017" y1="430" x2="1012" y2="421" stroke="#000000" stroke-width="1" fill="none"/>
<line  x1="1017" y1="430" x2="1021" y2="421" stroke="#000000" stroke-width="1" fill="none"/>
<line  x1="638" y1="519" x2="639" y2="674" stroke="#000000" stroke-width="1" fill="none"/>
<line  x1="639" y1="674" x2="374" y2="672" stroke="#000000" stroke-width="1" fill="none"/>
<line  x1="374" y1="672" x2="375" y2="114" stroke="#000000" stroke-width="1" fill="none"/>
<line  x1="375" y1="114" x2="611" y2="115" stroke="#000000" stroke-width="1" fill="none"/>
<line  x1="611" y1="115" x2="625" y2="135" stroke="#000000" stroke-width="1" fill="none"/>
<line  x1="625" y1="135" x2="615" y2="130" stroke="#000000" stroke-width="1" fill="none"/>
<line  x1="625" y1="135" x2="624" y2="125" stroke="#000000" stroke-width="1" fill="none"/>
</svg>