<?xml version="1.0" standalone="no"?>
<!DOCTYPE svg PUBLIC "-//W3C//DTD SVG 1.1//EN" "http://www.w3.org/Graphics/SVG/1.1/DTD/svg11.dtd">
<svg xmlns="http://www.w3.org/2000/svg" version="1.1" width="1276" height="738" viewbox="374 110 902 628">
<ellipse  cx="643" cy="122" rx="7" ry="7" fill="#000000"/>
<line  x1="643" y1="130" x2="643" y2="135" stroke="#000000" stroke-width="1" fill="none"/>
<line  x1="645" y1="165" x2="645" y2="175" stroke="#000000" stroke-width="1" fill="none"/>
<line  x1="645" y1="185" x2="645" y2="195" stroke="#000000" stroke-width="1" fill="none"/>
<line  x1="630" y1="180" x2="640" y2="180" stroke="#000000" stroke-width="1" fill="none"/>
<line  x1="650" y1="180" x2="660" y2="180" stroke="#000000" stroke-width="1" fill="none"/>
<line  x1="645" y1="175" x2="640" y2="180" stroke="#000000" stroke-width="1" fill="none"/>
<line  x1="645" y1="175" x2="650" y2="180" stroke="#000000" stroke-width="1" fill="none"/>
<line  x1="640" y1="180" x2="645" y2="185" stroke="#000000" stroke-width="1" fill="none"/>
<line  x1="650" y1="180" x2="645" y2="185" stroke="#000000" stroke-width="1" fill="none"/>
<line  x1="645" y1="223" x2="645" y2="218" stroke="#000000" stroke-width="1" fill="none"/>
<line  x1="645" y1="243" x2="645" y2="248" stroke="#000000" stroke-width="1" fill="none"/>
<line  x1="504" y1="224" x2="789" y2="224" stroke="#d8bbf9" stroke-width="1" fill="none"/>
<line  x1="789" y1="224" x2="789" y2="244" stroke="#d8bbf9" stroke-width="1" fill="none"/>
<line  x1="504" y1="244" x2="789" y2="244" stroke="#d8bbf9" stroke-width="1" fill="none"/>
<line  x1="504" y1="224" x2="514" y2="234" stroke="#d8bbf9" stroke-width="1" fill="none"/>
<line  x1="504" y1="244" x2="514" y2="234" stroke="#d8bbf9" stroke-width="1" fill="none"/>
<line  x1="503" y1="223" x2="788" y2="223" stroke="#000000" stroke-width="1" fill="none"/>
<line  x1="788" y1="223" x2="788" y2="243" stroke="#000000" stroke-width="1" fill="none"/>
<line  x1="503" y1="243" x2="788" y2="243" stroke="#000000" stroke-width="1" fill="none"/>
<line  x1="503" y1="223" x2="513" y2="233" stroke="#000000" stroke-width="1" fill="none"/>
<line  x1="503" y1="243" x2="513" y2="233" stroke="#000000" stroke-width="1" fill="none"/>
<text  x="509" y="223" style="font-size:12; font-family:SansSerif.plain; fill=#000000">evt</text>
<text  x="515" y="238" style="font-size:12; font-family:SansSerif.plain; fill=#000000">AuthenticateDriverInformation(string name , u8 ID)</text>
<line  x1="1022" y1="480" x2="1022" y2="475" stroke="#000000" stroke-width="1" fill="none"/>
<line  x1="1022" y1="500" x2="1022" y2="505" stroke="#000000" stroke-width="1" fill="none"/>
<line  x1="930" y1="481" x2="1106" y2="481" stroke="#d8bbf9" stroke-width="1" fill="none"/>
<line  x1="930" y1="501" x2="1106" y2="501" stroke="#d8bbf9" stroke-width="1" fill="none"/>
<line  x1="930" y1="481" x2="930" y2="501" stroke="#d8bbf9" stroke-width="1" fill="none"/>
<line  x1="1106" y1="481" x2="1116" y2="491" stroke="#d8bbf9" stroke-width="1" fill="none"/>
<line  x1="1106" y1="501" x2="1116" y2="491" stroke="#d8bbf9" stroke-width="1" fill="none"/>
<line  x1="929" y1="480" x2="1105" y2="480" stroke="#000000" stroke-width="1" fill="none"/>
<line  x1="929" y1="500" x2="1105" y2="500" stroke="#000000" stroke-width="1" fill="none"/>
<line  x1="929" y1="480" x2="929" y2="500" stroke="#000000" stroke-width="1" fill="none"/>
<line  x1="1105" y1="480" x2="1115" y2="490" stroke="#000000" stroke-width="1" fill="none"/>
<line  x1="1105" y1="500" x2="1115" y2="490" stroke="#000000" stroke-width="1" fill="none"/>
<text  x="934" y="480" style="font-size:12; font-family:SansSerif.plain; fill=#000000">sig</text>
<text  x="934" y="495" style="font-size:12; font-family:SansSerif.plain; fill=#000000">LCD_Display(&quot;Not Valid Admin&quot;)</text>
<line  x1="1023" y1="533" x2="1023" y2="528" stroke="#000000" stroke-width="1" fill="none"/>
<line  x1="1023" y1="553" x2="1023" y2="558" stroke="#000000" stroke-width="1" fill="none"/>
<line  x1="993" y1="534" x2="1045" y2="534" stroke="#d8bbf9" stroke-width="1" fill="none"/>
<line  x1="993" y1="554" x2="1045" y2="554" stroke="#d8bbf9" stroke-width="1" fill="none"/>
<line  x1="993" y1="534" x2="993" y2="554" stroke="#d8bbf9" stroke-width="1" fill="none"/>
<line  x1="1045" y1="534" x2="1055" y2="544" stroke="#d8bbf9" stroke-width="1" fill="none"/>
<line  x1="1045" y1="554" x2="1055" y2="544" stroke="#d8bbf9" stroke-width="1" fill="none"/>
<line  x1="992" y1="533" x2="1044" y2="533" stroke="#000000" stroke-width="1" fill="none"/>
<line  x1="992" y1="553" x2="1044" y2="553" stroke="#000000" stroke-width="1" fill="none"/>
<line  x1="992" y1="533" x2="992" y2="553" stroke="#000000" stroke-width="1" fill="none"/>
<line  x1="1044" y1="533" x2="1054" y2="543" stroke="#000000" stroke-width="1" fill="none"/>
<line  x1="1044" y1="553" x2="1054" y2="543" stroke="#000000" stroke-width="1" fill="none"/>
<text  x="997" y="533" style="font-size:12; font-family:SansSerif.plain; fill=#000000">sig</text>
<text  x="997" y="548" style="font-size:12; font-family:SansSerif.plain; fill=#000000">BuzzerOn</text>
<rect  x="974" y="587" width="100" height="50" fill="none" stroke="#000000" stroke-width="1"/>
<line  x1="974" y1="602" x2="989" y2="602" stroke="#000000" stroke-width="1" fill="none"/>
<line  x1="989" y1="602" x2="994" y2="597" stroke="#000000" stroke-width="1" fill="none"/>
<line  x1="994" y1="597" x2="994" y2="587" stroke="#000000" stroke-width="1" fill="none"/>
<text  x="975" y="600" style="font-size:12; font-family:SansSerif.plain; fill=#000000">act</text>
<text  x="1008" y="604" style="font-size:12; font-family:SansSerif.plain; fill=#000000">Delay</text>
<line  x1="1025" y1="688" x2="1025" y2="683" stroke="#000000" stroke-width="1" fill="none"/>
<line  x1="1025" y1="708" x2="1025" y2="713" stroke="#000000" stroke-width="1" fill="none"/>
<line  x1="996" y1="689" x2="1047" y2="689" stroke="#d8bbf9" stroke-width="1" fill="none"/>
<line  x1="996" y1="709" x2="1047" y2="709" stroke="#d8bbf9" stroke-width="1" fill="none"/>
<line  x1="996" y1="689" x2="996" y2="709" stroke="#d8bbf9" stroke-width="1" fill="none"/>
<line  x1="1047" y1="689" x2="1057" y2="699" stroke="#d8bbf9" stroke-width="1" fill="none"/>
<line  x1="1047" y1="709" x2="1057" y2="699" stroke="#d8bbf9" stroke-width="1" fill="none"/>
<line  x1="995" y1="688" x2="1046" y2="688" stroke="#000000" stroke-width="1" fill="none"/>
<line  x1="995" y1="708" x2="1046" y2="708" stroke="#000000" stroke-width="1" fill="none"/>
<line  x1="995" y1="688" x2="995" y2="708" stroke="#000000" stroke-width="1" fill="none"/>
<line  x1="1046" y1="688" x2="1056" y2="698" stroke="#000000" stroke-width="1" fill="none"/>
<line  x1="1046" y1="708" x2="1056" y2="698" stroke="#000000" stroke-width="1" fill="none"/>
<text  x="1000" y="688" style="font-size:12; font-family:SansSerif.plain; fill=#000000">sig</text>
<text  x="1000" y="703" style="font-size:12; font-family:SansSerif.plain; fill=#000000">BuzzerOff</text>
<line  x1="643" y1="539" x2="643" y2="534" stroke="#000000" stroke-width="1" fill="none"/>
<line  x1="643" y1="559" x2="643" y2="564" stroke="#000000" stroke-width="1" fill="none"/>
<line  x1="607" y1="540" x2="671" y2="540" stroke="#d8bbf9" stroke-width="1" fill="none"/>
<line  x1="607" y1="560" x2="671" y2="560" stroke="#d8bbf9" stroke-width="1" fill="none"/>
<line  x1="607" y1="540" x2="607" y2="560" stroke="#d8bbf9" stroke-width="1" fill="none"/>
<line  x1="671" y1="540" x2="681" y2="550" stroke="#d8bbf9" stroke-width="1" fill="none"/>
<line  x1="671" y1="560" x2="681" y2="550" stroke="#d8bbf9" stroke-width="1" fill="none"/>
<line  x1="606" y1="539" x2="670" y2="539" stroke="#000000" stroke-width="1" fill="none"/>
<line  x1="606" y1="559" x2="670" y2="559" stroke="#000000" stroke-width="1" fill="none"/>
<line  x1="606" y1="539" x2="606" y2="559" stroke="#000000" stroke-width="1" fill="none"/>
<line  x1="670" y1="539" x2="680" y2="549" stroke="#000000" stroke-width="1" fill="none"/>
<line  x1="670" y1="559" x2="680" y2="549" stroke="#000000" stroke-width="1" fill="none"/>
<text  x="611" y="539" style="font-size:12; font-family:SansSerif.plain; fill=#000000">sig</text>
<text  x="611" y="554" style="font-size:12; font-family:SansSerif.plain; fill=#000000">OpenGate()</text>
<line  x1="644" y1="332" x2="659" y2="347" stroke="#000000" stroke-width="1" fill="none"/>
<line  x1="629" y1="347" x2="644" y2="362" stroke="#000000" stroke-width="1" fill="none"/>
<line  x1="644" y1="332" x2="629" y2="347" stroke="#000000" stroke-width="1" fill="none"/>
<line  x1="659" y1="347" x2="644" y2="362" stroke="#000000" stroke-width="1" fill="none"/>
<line  x1="644" y1="332" x2="644" y2="322" stroke="#000000" stroke-width="1" fill="none"/>
<line  x1="629" y1="347" x2="604" y2="347" stroke="#000000" stroke-width="1" fill="none"/>
<line  x1="659" y1="347" x2="684" y2="347" stroke="#000000" stroke-width="1" fill="none"/>
<line  x1="644" y1="362" x2="644" y2="387" stroke="#000000" stroke-width="1" fill="none"/>
<text  x="604" y="342" style="font-size:12; font-family:SansSerif.plain; fill=#000000">[ ]</text>
<text  x="664" y="342" style="font-size:12; font-family:SansSerif.plain; fill=#000000">[NOT_VALID_DRIVER]</text>
<text  x="649" y="377" style="font-size:12; font-family:SansSerif.plain; fill=#000000">[VALID_DRIVER]</text>
<line  x1="643" y1="135" x2="645" y2="165" stroke="#000000" stroke-width="1" fill="none"/>
<line  x1="645" y1="165" x2="639" y2="156" stroke="#000000" stroke-width="1" fill="none"/>
<line  x1="645" y1="165" x2="649" y2="156" stroke="#000000" stroke-width="1" fill="none"/>
<line  x1="645" y1="195" x2="645" y2="218" stroke="#000000" stroke-width="1" fill="none"/>
<line  x1="645" y1="218" x2="640" y2="209" stroke="#000000" stroke-width="1" fill="none"/>
<line  x1="645" y1="218" x2="649" y2="209" stroke="#000000" stroke-width="1" fill="none"/>
<line  x1="645" y1="248" x2="644" y2="322" stroke="#000000" stroke-width="1" fill="none"/>
<line  x1="644" y1="322" x2="639" y2="313" stroke="#000000" stroke-width="1" fill="none"/>
<line  x1="644" y1="322" x2="649" y2="313" stroke="#000000" stroke-width="1" fill="none"/>
<line  x1="1022" y1="505" x2="1023" y2="528" stroke="#000000" stroke-width="1" fill="none"/>
<line  x1="1023" y1="528" x2="1017" y2="519" stroke="#000000" stroke-width="1" fill="none"/>
<line  x1="1023" y1="528" x2="1027" y2="519" stroke="#000000" stroke-width="1" fill="none"/>
<line  x1="1023" y1="558" x2="1024" y2="587" stroke="#000000" stroke-width="1" fill="none"/>
<line  x1="1024" y1="587" x2="1018" y2="578" stroke="#000000" stroke-width="1" fill="none"/>
<line  x1="1024" y1="587" x2="1028" y2="578" stroke="#000000" stroke-width="1" fill="none"/>
<line  x1="1024" y1="637" x2="1025" y2="683" stroke="#000000" stroke-width="1" fill="none"/>
<line  x1="1025" y1="683" x2="1019" y2="674" stroke="#000000" stroke-width="1" fill="none"/>
<line  x1="1025" y1="683" x2="1029" y2="674" stroke="#000000" stroke-width="1" fill="none"/>
<line  x1="643" y1="564" x2="644" y2="719" stroke="#000000" stroke-width="1" fill="none"/>
<line  x1="644" y1="719" x2="379" y2="717" stroke="#000000" stroke-width="1" fill="none"/>
<line  x1="379" y1="717" x2="380" y2="159" stroke="#000000" stroke-width="1" fill="none"/>
<line  x1="380" y1="159" x2="616" y2="160" stroke="#000000" stroke-width="1" fill="none"/>
<line  x1="616" y1="160" x2="630" y2="180" stroke="#000000" stroke-width="1" fill="none"/>
<line  x1="630" y1="180" x2="620" y2="175" stroke="#000000" stroke-width="1" fill="none"/>
<line  x1="630" y1="180" x2="629" y2="170" stroke="#000000" stroke-width="1" fill="none"/>
<line  x1="684" y1="347" x2="1022" y2="347" stroke="#000000" stroke-width="1" fill="none"/>
<line  x1="1022" y1="347" x2="1022" y2="475" stroke="#000000" stroke-width="1" fill="none"/>
<line  x1="1022" y1="475" x2="1017" y2="466" stroke="#000000" stroke-width="1" fill="none"/>
<line  x1="1022" y1="475" x2="1026" y2="466" stroke="#000000" stroke-width="1" fill="none"/>
<line  x1="1025" y1="713" x2="1025" y2="733" stroke="#000000" stroke-width="1" fill="none"/>
<line  x1="1025" y1="733" x2="1271" y2="733" stroke="#000000" stroke-width="1" fill="none"/>
<line  x1="1271" y1="733" x2="1271" y2="160" stroke="#000000" stroke-width="1" fill="none"/>
<line  x1="1271" y1="160" x2="680" y2="160" stroke="#000000" stroke-width="1" fill="none"/>
<line  x1="680" y1="160" x2="660" y2="180" stroke="#000000" stroke-width="1" fill="none"/>
<line  x1="660" y1="180" x2="662" y2="170" stroke="#000000" stroke-width="1" fill="none"/>
<line  x1="660" y1="180" x2="669" y2="177" stroke="#000000" stroke-width="1" fill="none"/>
<line  x1="644" y1="387" x2="643" y2="534" stroke="#000000" stroke-width="1" fill="none"/>
<line  x1="643" y1="534" x2="638" y2="525" stroke="#000000" stroke-width="1" fill="none"/>
<line  x1="643" y1="534" x2="648" y2="525" stroke="#000000" stroke-width="1" fill="none"/>
</svg>