<?xml version="1.0" standalone="no"?>
<!DOCTYPE svg PUBLIC "-//W3C//DTD SVG 1.1//EN" "http://www.w3.org/Graphics/SVG/1.1/DTD/svg11.dtd">
<svg xmlns="http://www.w3.org/2000/svg" version="1.1" width="1109" height="717" viewbox="207 89 902 628">
<rect  x="293" y="421" width="368" height="68" fill="none" stroke="#000000" stroke-width="1"/>
<line  x1="293" y1="436" x2="308" y2="436" stroke="#000000" stroke-width="1" fill="none"/>
<line  x1="308" y1="436" x2="313" y2="431" stroke="#000000" stroke-width="1" fill="none"/>
<line  x1="313" y1="431" x2="313" y2="421" stroke="#000000" stroke-width="1" fill="none"/>
<text  x="294" y="434" style="font-size:12; font-family:SansSerif.plain; fill=#000000">act</text>
<text  x="418" y="438" style="font-size:12; font-family:SansSerif.plain; fill=#000000">displayAdminOptions</text>
<ellipse  cx="476" cy="101" rx="7" ry="7" fill="#000000"/>
<line  x1="476" y1="109" x2="476" y2="114" stroke="#000000" stroke-width="1" fill="none"/>
<line  x1="478" y1="144" x2="478" y2="154" stroke="#000000" stroke-width="1" fill="none"/>
<line  x1="478" y1="164" x2="478" y2="174" stroke="#000000" stroke-width="1" fill="none"/>
<line  x1="463" y1="159" x2="473" y2="159" stroke="#000000" stroke-width="1" fill="none"/>
<line  x1="483" y1="159" x2="493" y2="159" stroke="#000000" stroke-width="1" fill="none"/>
<line  x1="478" y1="154" x2="473" y2="159" stroke="#000000" stroke-width="1" fill="none"/>
<line  x1="478" y1="154" x2="483" y2="159" stroke="#000000" stroke-width="1" fill="none"/>
<line  x1="473" y1="159" x2="478" y2="164" stroke="#000000" stroke-width="1" fill="none"/>
<line  x1="483" y1="159" x2="478" y2="164" stroke="#000000" stroke-width="1" fill="none"/>
<line  x1="477" y1="311" x2="492" y2="326" stroke="#000000" stroke-width="1" fill="none"/>
<line  x1="462" y1="326" x2="477" y2="341" stroke="#000000" stroke-width="1" fill="none"/>
<line  x1="477" y1="311" x2="462" y2="326" stroke="#000000" stroke-width="1" fill="none"/>
<line  x1="492" y1="326" x2="477" y2="341" stroke="#000000" stroke-width="1" fill="none"/>
<line  x1="477" y1="311" x2="477" y2="301" stroke="#000000" stroke-width="1" fill="none"/>
<line  x1="462" y1="326" x2="437" y2="326" stroke="#000000" stroke-width="1" fill="none"/>
<line  x1="492" y1="326" x2="517" y2="326" stroke="#000000" stroke-width="1" fill="none"/>
<line  x1="477" y1="341" x2="477" y2="366" stroke="#000000" stroke-width="1" fill="none"/>
<text  x="437" y="321" style="font-size:12; font-family:SansSerif.plain; fill=#000000">[ ]</text>
<text  x="497" y="321" style="font-size:12; font-family:SansSerif.plain; fill=#000000">[NOT_VALID_ADMIN]</text>
<text  x="482" y="356" style="font-size:12; font-family:SansSerif.plain; fill=#000000">[VALID_ADMIN]</text>
<line  x1="478" y1="202" x2="478" y2="197" stroke="#000000" stroke-width="1" fill="none"/>
<line  x1="478" y1="222" x2="478" y2="227" stroke="#000000" stroke-width="1" fill="none"/>
<line  x1="344" y1="203" x2="615" y2="203" stroke="#d8bbf9" stroke-width="1" fill="none"/>
<line  x1="615" y1="203" x2="615" y2="223" stroke="#d8bbf9" stroke-width="1" fill="none"/>
<line  x1="344" y1="223" x2="615" y2="223" stroke="#d8bbf9" stroke-width="1" fill="none"/>
<line  x1="344" y1="203" x2="354" y2="213" stroke="#d8bbf9" stroke-width="1" fill="none"/>
<line  x1="344" y1="223" x2="354" y2="213" stroke="#d8bbf9" stroke-width="1" fill="none"/>
<line  x1="343" y1="202" x2="614" y2="202" stroke="#000000" stroke-width="1" fill="none"/>
<line  x1="614" y1="202" x2="614" y2="222" stroke="#000000" stroke-width="1" fill="none"/>
<line  x1="343" y1="222" x2="614" y2="222" stroke="#000000" stroke-width="1" fill="none"/>
<line  x1="343" y1="202" x2="353" y2="212" stroke="#000000" stroke-width="1" fill="none"/>
<line  x1="343" y1="222" x2="353" y2="212" stroke="#000000" stroke-width="1" fill="none"/>
<text  x="349" y="202" style="font-size:12; font-family:SansSerif.plain; fill=#000000">evt</text>
<text  x="355" y="217" style="font-size:12; font-family:SansSerif.plain; fill=#000000">validateAdminData(String Name, u8 Password)</text>
<line  x1="855" y1="459" x2="855" y2="454" stroke="#000000" stroke-width="1" fill="none"/>
<line  x1="855" y1="479" x2="855" y2="484" stroke="#000000" stroke-width="1" fill="none"/>
<line  x1="763" y1="460" x2="939" y2="460" stroke="#d8bbf9" stroke-width="1" fill="none"/>
<line  x1="763" y1="480" x2="939" y2="480" stroke="#d8bbf9" stroke-width="1" fill="none"/>
<line  x1="763" y1="460" x2="763" y2="480" stroke="#d8bbf9" stroke-width="1" fill="none"/>
<line  x1="939" y1="460" x2="949" y2="470" stroke="#d8bbf9" stroke-width="1" fill="none"/>
<line  x1="939" y1="480" x2="949" y2="470" stroke="#d8bbf9" stroke-width="1" fill="none"/>
<line  x1="762" y1="459" x2="938" y2="459" stroke="#000000" stroke-width="1" fill="none"/>
<line  x1="762" y1="479" x2="938" y2="479" stroke="#000000" stroke-width="1" fill="none"/>
<line  x1="762" y1="459" x2="762" y2="479" stroke="#000000" stroke-width="1" fill="none"/>
<line  x1="938" y1="459" x2="948" y2="469" stroke="#000000" stroke-width="1" fill="none"/>
<line  x1="938" y1="479" x2="948" y2="469" stroke="#000000" stroke-width="1" fill="none"/>
<text  x="767" y="459" style="font-size:12; font-family:SansSerif.plain; fill=#000000">sig</text>
<text  x="767" y="474" style="font-size:12; font-family:SansSerif.plain; fill=#000000">LCD_Display(&quot;Not Valid Admin&quot;)</text>
<line  x1="856" y1="512" x2="856" y2="507" stroke="#000000" stroke-width="1" fill="none"/>
<line  x1="856" y1="532" x2="856" y2="537" stroke="#000000" stroke-width="1" fill="none"/>
<line  x1="826" y1="513" x2="878" y2="513" stroke="#d8bbf9" stroke-width="1" fill="none"/>
<line  x1="826" y1="533" x2="878" y2="533" stroke="#d8bbf9" stroke-width="1" fill="none"/>
<line  x1="826" y1="513" x2="826" y2="533" stroke="#d8bbf9" stroke-width="1" fill="none"/>
<line  x1="878" y1="513" x2="888" y2="523" stroke="#d8bbf9" stroke-width="1" fill="none"/>
<line  x1="878" y1="533" x2="888" y2="523" stroke="#d8bbf9" stroke-width="1" fill="none"/>
<line  x1="825" y1="512" x2="877" y2="512" stroke="#000000" stroke-width="1" fill="none"/>
<line  x1="825" y1="532" x2="877" y2="532" stroke="#000000" stroke-width="1" fill="none"/>
<line  x1="825" y1="512" x2="825" y2="532" stroke="#000000" stroke-width="1" fill="none"/>
<line  x1="877" y1="512" x2="887" y2="522" stroke="#000000" stroke-width="1" fill="none"/>
<line  x1="877" y1="532" x2="887" y2="522" stroke="#000000" stroke-width="1" fill="none"/>
<text  x="830" y="512" style="font-size:12; font-family:SansSerif.plain; fill=#000000">sig</text>
<text  x="830" y="527" style="font-size:12; font-family:SansSerif.plain; fill=#000000">BuzzerOn</text>
<rect  x="807" y="566" width="100" height="50" fill="none" stroke="#000000" stroke-width="1"/>
<line  x1="807" y1="581" x2="822" y2="581" stroke="#000000" stroke-width="1" fill="none"/>
<line  x1="822" y1="581" x2="827" y2="576" stroke="#000000" stroke-width="1" fill="none"/>
<line  x1="827" y1="576" x2="827" y2="566" stroke="#000000" stroke-width="1" fill="none"/>
<text  x="808" y="579" style="font-size:12; font-family:SansSerif.plain; fill=#000000">act</text>
<text  x="841" y="583" style="font-size:12; font-family:SansSerif.plain; fill=#000000">Delay</text>
<line  x1="858" y1="667" x2="858" y2="662" stroke="#000000" stroke-width="1" fill="none"/>
<line  x1="858" y1="687" x2="858" y2="692" stroke="#000000" stroke-width="1" fill="none"/>
<line  x1="829" y1="668" x2="880" y2="668" stroke="#d8bbf9" stroke-width="1" fill="none"/>
<line  x1="829" y1="688" x2="880" y2="688" stroke="#d8bbf9" stroke-width="1" fill="none"/>
<line  x1="829" y1="668" x2="829" y2="688" stroke="#d8bbf9" stroke-width="1" fill="none"/>
<line  x1="880" y1="668" x2="890" y2="678" stroke="#d8bbf9" stroke-width="1" fill="none"/>
<line  x1="880" y1="688" x2="890" y2="678" stroke="#d8bbf9" stroke-width="1" fill="none"/>
<line  x1="828" y1="667" x2="879" y2="667" stroke="#000000" stroke-width="1" fill="none"/>
<line  x1="828" y1="687" x2="879" y2="687" stroke="#000000" stroke-width="1" fill="none"/>
<line  x1="828" y1="667" x2="828" y2="687" stroke="#000000" stroke-width="1" fill="none"/>
<line  x1="879" y1="667" x2="889" y2="677" stroke="#000000" stroke-width="1" fill="none"/>
<line  x1="879" y1="687" x2="889" y2="677" stroke="#000000" stroke-width="1" fill="none"/>
<text  x="833" y="667" style="font-size:12; font-family:SansSerif.plain; fill=#000000">sig</text>
<text  x="833" y="682" style="font-size:12; font-family:SansSerif.plain; fill=#000000">BuzzerOff</text>
<line  x1="476" y1="518" x2="476" y2="513" stroke="#000000" stroke-width="1" fill="none"/>
<line  x1="476" y1="538" x2="476" y2="543" stroke="#000000" stroke-width="1" fill="none"/>
<line  x1="422" y1="519" x2="522" y2="519" stroke="#d8bbf9" stroke-width="1" fill="none"/>
<line  x1="422" y1="539" x2="522" y2="539" stroke="#d8bbf9" stroke-width="1" fill="none"/>
<line  x1="422" y1="519" x2="422" y2="539" stroke="#d8bbf9" stroke-width="1" fill="none"/>
<line  x1="522" y1="519" x2="532" y2="529" stroke="#d8bbf9" stroke-width="1" fill="none"/>
<line  x1="522" y1="539" x2="532" y2="529" stroke="#d8bbf9" stroke-width="1" fill="none"/>
<line  x1="421" y1="518" x2="521" y2="518" stroke="#000000" stroke-width="1" fill="none"/>
<line  x1="421" y1="538" x2="521" y2="538" stroke="#000000" stroke-width="1" fill="none"/>
<line  x1="421" y1="518" x2="421" y2="538" stroke="#000000" stroke-width="1" fill="none"/>
<line  x1="521" y1="518" x2="531" y2="528" stroke="#000000" stroke-width="1" fill="none"/>
<line  x1="521" y1="538" x2="531" y2="528" stroke="#000000" stroke-width="1" fill="none"/>
<text  x="426" y="518" style="font-size:12; font-family:SansSerif.plain; fill=#000000">sig</text>
<text  x="426" y="533" style="font-size:12; font-family:SansSerif.plain; fill=#000000">display(String text)</text>
<line  x1="476" y1="114" x2="478" y2="144" stroke="#000000" stroke-width="1" fill="none"/>
<line  x1="478" y1="144" x2="472" y2="135" stroke="#000000" stroke-width="1" fill="none"/>
<line  x1="478" y1="144" x2="482" y2="135" stroke="#000000" stroke-width="1" fill="none"/>
<line  x1="478" y1="174" x2="478" y2="197" stroke="#000000" stroke-width="1" fill="none"/>
<line  x1="478" y1="197" x2="473" y2="188" stroke="#000000" stroke-width="1" fill="none"/>
<line  x1="478" y1="197" x2="482" y2="188" stroke="#000000" stroke-width="1" fill="none"/>
<line  x1="478" y1="227" x2="477" y2="301" stroke="#000000" stroke-width="1" fill="none"/>
<line  x1="477" y1="301" x2="472" y2="292" stroke="#000000" stroke-width="1" fill="none"/>
<line  x1="477" y1="301" x2="482" y2="292" stroke="#000000" stroke-width="1" fill="none"/>
<line  x1="477" y1="366" x2="477" y2="421" stroke="#000000" stroke-width="1" fill="none"/>
<line  x1="477" y1="421" x2="472" y2="412" stroke="#000000" stroke-width="1" fill="none"/>
<line  x1="477" y1="421" x2="481" y2="412" stroke="#000000" stroke-width="1" fill="none"/>
<line  x1="855" y1="484" x2="856" y2="507" stroke="#000000" stroke-width="1" fill="none"/>
<line  x1="856" y1="507" x2="850" y2="498" stroke="#000000" stroke-width="1" fill="none"/>
<line  x1="856" y1="507" x2="860" y2="498" stroke="#000000" stroke-width="1" fill="none"/>
<line  x1="856" y1="537" x2="857" y2="566" stroke="#000000" stroke-width="1" fill="none"/>
<line  x1="857" y1="566" x2="851" y2="557" stroke="#000000" stroke-width="1" fill="none"/>
<line  x1="857" y1="566" x2="861" y2="557" stroke="#000000" stroke-width="1" fill="none"/>
<line  x1="857" y1="616" x2="858" y2="662" stroke="#000000" stroke-width="1" fill="none"/>
<line  x1="858" y1="662" x2="852" y2="653" stroke="#000000" stroke-width="1" fill="none"/>
<line  x1="858" y1="662" x2="862" y2="653" stroke="#000000" stroke-width="1" fill="none"/>
<line  x1="858" y1="692" x2="858" y2="712" stroke="#000000" stroke-width="1" fill="none"/>
<line  x1="858" y1="712" x2="1104" y2="712" stroke="#000000" stroke-width="1" fill="none"/>
<line  x1="1104" y1="712" x2="1104" y2="139" stroke="#000000" stroke-width="1" fill="none"/>
<line  x1="1104" y1="139" x2="513" y2="139" stroke="#000000" stroke-width="1" fill="none"/>
<line  x1="513" y1="139" x2="493" y2="159" stroke="#000000" stroke-width="1" fill="none"/>
<line  x1="493" y1="159" x2="495" y2="149" stroke="#000000" stroke-width="1" fill="none"/>
<line  x1="493" y1="159" x2="502" y2="156" stroke="#000000" stroke-width="1" fill="none"/>
<line  x1="517" y1="326" x2="855" y2="326" stroke="#000000" stroke-width="1" fill="none"/>
<line  x1="855" y1="326" x2="855" y2="454" stroke="#000000" stroke-width="1" fill="none"/>
<line  x1="855" y1="454" x2="850" y2="445" stroke="#000000" stroke-width="1" fill="none"/>
<line  x1="855" y1="454" x2="859" y2="445" stroke="#000000" stroke-width="1" fill="none"/>
<line  x1="477" y1="489" x2="476" y2="513" stroke="#000000" stroke-width="1" fill="none"/>
<line  x1="476" y1="513" x2="471" y2="504" stroke="#000000" stroke-width="1" fill="none"/>
<line  x1="476" y1="513" x2="481" y2="504" stroke="#000000" stroke-width="1" fill="none"/>
<line  x1="476" y1="543" x2="477" y2="698" stroke="#000000" stroke-width="1" fill="none"/>
<line  x1="477" y1="698" x2="212" y2="696" stroke="#000000" stroke-width="1" fill="none"/>
<line  x1="212" y1="696" x2="213" y2="138" stroke="#000000" stroke-width="1" fill="none"/>
<line  x1="213" y1="138" x2="449" y2="139" stroke="#000000" stroke-width="1" fill="none"/>
<line  x1="449" y1="139" x2="463" y2="159" stroke="#000000" stroke-width="1" fill="none"/>
<line  x1="463" y1="159" x2="453" y2="154" stroke="#000000" stroke-width="1" fill="none"/>
<line  x1="463" y1="159" x2="462" y2="149" stroke="#000000" stroke-width="1" fill="none"/>
</svg>